<svg xmlns="http://www.w3.org/2000/svg" viewBox="0 0 512 512">
  <rect width="512" height="512" rx="64" fill="#1e3a5f"/>
  <g fill="#f7941d">
    <!-- Scale/Balance icon -->
    <rect x="240" y="80" width="32" height="200" rx="4"/>
    <circle cx="256" cy="80" r="24"/>
    <rect x="120" y="160" width="272" height="16" rx="8"/>
    <!-- Left pan -->
    <path d="M120 176 L80 280 Q80 300 100 300 L180 300 Q200 300 200 280 L160 176 Z"/>
    <!-- Right pan -->
    <path d="M352 176 L312 280 Q312 300 332 300 L412 300 Q432 300 432 280 L392 176 Z"/>
    <!-- Chains -->
    <rect x="136" y="176" width="8" height="60"/>
    <rect x="368" y="176" width="8" height="60"/>
  </g>
  <!-- Document lines -->
  <g fill="#ffffff" opacity="0.3">
    <rect x="160" y="340" width="192" height="12" rx="6"/>
    <rect x="160" y="370" width="160" height="12" rx="6"/>
    <rect x="160" y="400" width="192" height="12" rx="6"/>
  </g>
  <!-- SGK text -->
  <text x="256" y="470" text-anchor="middle" fill="#ffffff" font-family="Arial, sans-serif" font-size="48" font-weight="bold">СГК</text>
</svg>
